<?xml version="1.0"?>
<svg xmlns="http://www.w3.org/2000/svg" id="Capa_1" enable-background="new 0 0 475.293 475.293" height="512px" viewBox="0 0 475.293 475.293" width="512px"><g><path d="m430.734 59.412h-386.175c-24.571 0-44.559 19.987-44.559 44.558v267.352c0 24.571 19.988 44.559 44.559 44.559h386.176c24.571 0 44.559-19.988 44.559-44.559v-267.352c-.001-24.571-19.988-44.558-44.56-44.558zm14.853 311.911c0 8.195-6.658 14.853-14.853 14.853h-386.175c-8.195 0-14.853-6.658-14.853-14.853v-193.088h415.882v193.088zm0-222.794h-415.881v-44.559c0-8.195 6.658-14.853 14.853-14.853h386.176c8.195 0 14.853 6.658 14.853 14.853v44.559z" data-original="#000000" class="active-path" fill="#000000"/></g> </svg>
